{
  "accessors": [
    {
      "bufferView": 2,
      "componentType": 5126,
      "count": 2029,
      "max": [
        10.655570983886719,
        11.136487007141113,
        4.4736747741699219
      ],
      "min": [
        -11.730097770690918,
        -8.04345703125,
        -41.532630920410156
      ],
      "type": "VEC3"
    },
    {
      "bufferView": 2,
      "byteOffset": 24348,
      "componentType": 5126,
      "count": 2029,
      "max": [
        0.99760669469833374,
        1,
        0.99622917175292969
      ],
      "min": [
        -0.99682790040969849,
        -0.994667649269104,
        -0.99086833000183105
      ],
      "type": "VEC3"
    },
    {
      "bufferView": 3,
      "componentType": 5126,
      "count": 2029,
      "max": [
        0.9999995231628418,
        0.99782216548919678,
        0.98790162801742554,
        1
      ],
      "min": [
        -0.99740010499954224,
        -0.99809384346008301,
        -0.99745482206344604,
        -1
      ],
      "type": "VEC4"
    },
    {
      "bufferView": 1,
      "componentType": 5126,
      "count": 2029,
      "max": [
        0.50038701295852661,
        0.92819499969482422
      ],
      "min": [
        0.062497999519109726,
        0.058719001710414886
      ],
      "type": "VEC2"
    },
    {
      "bufferView": 0,
      "componentType": 5125,
      "count": 7188,
      "max": [
        2028
      ],
      "min": [
        0
      ],
      "type": "SCALAR"
    },
    {
      "bufferView": 2,
      "byteOffset": 48696,
      "componentType": 5126,
      "count": 146,
      "max": [
        3.6837389469146729,
        0.25609499216079712,
        -1.8365540504455566
      ],
      "min": [
        -1.6435259580612183,
        -11.871248245239258,
        -31.080829620361328
      ],
      "type": "VEC3"
    },
    {
      "bufferView": 2,
      "byteOffset": 50448,
      "componentType": 5126,
      "count": 146,
      "max": [
        0.95279335975646973,
        0.83303046226501465,
        0.99271047115325928
      ],
      "min": [
        -0.98985761404037476,
        -0.97994565963745117,
        -0.98759937286376953
      ],
      "type": "VEC3"
    },
    {
      "bufferView": 3,
      "byteOffset": 32464,
      "componentType": 5126,
      "count": 146,
      "max": [
        0.64937996864318848,
        0.98909610509872437,
        0.9467957615852356,
        1
      ],
      "min": [
        -0.99779736995697021,
        -0.69413489103317261,
        -0.96752309799194336,
        -1
      ],
      "type": "VEC4"
    },
    {
      "bufferView": 1,
      "byteOffset": 16232,
      "componentType": 5126,
      "count": 146,
      "max": [
        0.19117400050163269,
        0.91131997108459473
      ],
      "min": [
        0.062497999519109726,
        0.058719001710414886
      ],
      "type": "VEC2"
    },
    {
      "bufferView": 0,
      "byteOffset": 28752,
      "componentType": 5125,
      "count": 522,
      "max": [
        145
      ],
      "min": [
        0
      ],
      "type": "SCALAR"
    },
    {
      "bufferView": 4,
      "componentType": 5126,
      "count": 1,
      "max": [
        0.041666667908430099
      ],
      "min": [
        0.041666667908430099
      ],
      "type": "SCALAR"
    },
    {
      "bufferView": 5,
      "componentType": 5126,
      "count": 1,
      "max": [
        -0.27267909049987793,
        0.66072046756744385,
        0.64180248975753784,
        0.27782037854194641
      ],
      "min": [
        -0.27267909049987793,
        0.66072046756744385,
        0.64180248975753784,
        0.27782037854194641
      ],
      "type": "VEC4"
    }
  ],
  "animations": [
    {
      "channels": [
        {
          "sampler": 0,
          "target": {
            "node": 5,
            "path": "rotation"
          }
        }
      ],
      "name": "Default Take",
      "samplers": [
        {
          "input": 10,
          "interpolation": "LINEAR",
          "output": 11
        }
      ]
    }
  ],
  "asset": {
    "extras": {
      "author": "Tiia Tuulia (https://sketchfab.com/tiiatuulia)",
      "license": "CC-BY-4.0 (http://creativecommons.org/licenses/by/4.0/)",
      "source": "https://sketchfab.com/models/10187bc37c9e42ef8770b28452ee7cd3",
      "title": "Corn! Corn! Corn!"
    },
    "generator": "Sketchfab-3.18.5",
    "version": "2.0"
  },
  "bufferViews": [
    {
      "buffer": 0,
      "byteLength": 30840,
      "byteOffset": 0,
      "name": "floatBufferViews",
      "target": 34963
    },
    {
      "buffer": 0,
      "byteLength": 17400,
      "byteOffset": 30840,
      "byteStride": 8,
      "name": "floatBufferViews",
      "target": 34962
    },
    {
      "buffer": 0,
      "byteLength": 52200,
      "byteOffset": 48240,
      "byteStride": 12,
      "name": "floatBufferViews",
      "target": 34962
    },
    {
      "buffer": 0,
      "byteLength": 34800,
      "byteOffset": 100440,
      "byteStride": 16,
      "name": "floatBufferViews",
      "target": 34962
    },
    {
      "buffer": 0,
      "byteLength": 4,
      "byteOffset": 135240,
      "name": "floatBufferViews"
    },
    {
      "buffer": 0,
      "byteLength": 16,
      "byteOffset": 135244,
      "byteStride": 16,
      "name": "floatBufferViews"
    }
  ],
  "buffers": [
    {
      "byteLength": 135260,
      "uri": "corn.bin"
    }
  ],
  "images": [
    {
      "uri": "textures/corn_plant__corn_texture_png_baseColor.png"
    },
    {
      "uri": "textures/corn_plant_001__corn_texture_png_001_baseColor.png"
    }
  ],
  "materials": [
    {
      "doubleSided": true,
      "emissiveFactor": [
        0,
        0,
        0
      ],
      "name": "corn_plant__corn_texture_png",
      "pbrMetallicRoughness": {
        "baseColorFactor": [
          1,
          1,
          1,
          1
        ],
        "baseColorTexture": {
          "index": 0,
          "texCoord": 0
        },
        "metallicFactor": 0,
        "roughnessFactor": 0.65415396339999998
      }
    },
    {
      "doubleSided": true,
      "emissiveFactor": [
        0,
        0,
        0
      ],
      "name": "corn_plant_001__corn_texture_png_001",
      "pbrMetallicRoughness": {
        "baseColorFactor": [
          1,
          1,
          1,
          1
        ],
        "baseColorTexture": {
          "index": 1,
          "texCoord": 0
        },
        "metallicFactor": 0,
        "roughnessFactor": 0.59999999999999998
      }
    }
  ],
  "meshes": [
    {
      "name": "Circle_020_corn_plant__corn_texture_png_0",
      "primitives": [
        {
          "attributes": {
            "NORMAL": 1,
            "POSITION": 0,
            "TANGENT": 2,
            "TEXCOORD_0": 3
          },
          "indices": 4,
          "material": 0,
          "mode": 4
        }
      ]
    },
    {
      "name": "Circle_020_corn_plant_001__corn_texture_png_001_0",
      "primitives": [
        {
          "attributes": {
            "NORMAL": 6,
            "POSITION": 5,
            "TANGENT": 7,
            "TEXCOORD_0": 8
          },
          "indices": 9,
          "material": 1,
          "mode": 4
        }
      ]
    }
  ],
  "nodes": [
    {
      "children": [
        1
      ],
      "name": "RootNode (gltf orientation matrix)",
      "rotation": [
        -0.70710678118654746,
        -0,
        -0,
        0.70710678118654757
      ]
    },
    {
      "children": [
        2
      ],
      "name": "RootNode (model correction matrix)"
    },
    {
      "children": [
        3
      ],
      "matrix": [
        1,
        0,
        0,
        0,
        0,
        0,
        1,
        0,
        0,
        -1,
        0,
        0,
        0,
        0,
        0,
        1
      ],
      "name": "fdd38405c86b44e49e5f7a62b0d2f0f7.fbx"
    },
    {
      "children": [
        4
      ],
      "name": ""
    },
    {
      "children": [
        5
      ],
      "name": "RootNode"
    },
    {
      "children": [
        6,
        7
      ],
      "name": "Circle_020",
      "rotation": [
        -0.27267906069755554,
        0.66072052717208862,
        0.64180243015289307,
        0.27782034873962402
      ],
      "scale": [
        0.083787523210048676,
        0.083787530660629272,
        0.083787530660629272
      ],
      "translation": [
        0.037537682801485062,
        3.4483883380889893,
        0.0886821448802948
      ]
    },
    {
      "mesh": 0,
      "name": "Circle_020_corn_plant__corn_texture_png_0"
    },
    {
      "mesh": 1,
      "name": "Circle_020_corn_plant_001__corn_texture_png_001_0"
    }
  ],
  "samplers": [
    {
      "magFilter": 9729,
      "minFilter": 9987,
      "wrapS": 10497,
      "wrapT": 10497
    }
  ],
  "scene": 0,
  "scenes": [
    {
      "name": "OSG_Scene",
      "nodes": [
        0
      ]
    }
  ],
  "textures": [
    {
      "sampler": 0,
      "source": 0
    },
    {
      "sampler": 0,
      "source": 1
    }
  ]
}

